<?xml version="1.0" encoding="UTF-8"?>
<svg id="Capa_2" data-name="Capa 2" xmlns="http://www.w3.org/2000/svg" viewBox="0 0 379.83 101.99">
  <defs>
    <style>
      .cls-1 {
        fill: #fff;
        stroke-width: 0px;
      }
    </style>
  </defs>
  <g id="Calque_1" data-name="Calque 1">
    <g>
      <path class="cls-1" d="m7.49,68.01c3.75,4.8,7.98,9.01,13.83,10.4,4.58,1.09,9.54-.56,11.58-4.85,2.99-6.29,2.01-15.29,8.66-19.07,1.64-.93,3.6.12,5.63.68.62.17,1.77-.39,2.18-1.32,3.67-8.3,3.91-17.33,8.51-25.38,2.38-4.16,7.83-7.26,11.82-2.47.32.38,1.63.38,1.99,0,6.78-7.43,8.73-18.36,18.08-23.3,1.7-.9,3.82-.91,5.57-.33,1.28.42,2.22,1.84,3.53,2.36.88.35,2.13.42,2.9-.04,11.47-6.85,25.51-6.37,35.06,2.81-4.84-1.24-9.59.53-13.98,2.13-13.42,4.9-24.09,13.97-32.71,26.04-12.6,17.64-22.22,36.81-41.57,46.56-16.97,8.55-39.58,2.8-48.58-14.29l7.49.09Z"/>
      <path class="cls-1" d="m82.17,96.72c.05-.24.12-.46.15-.7.33-2.05-.52-4.1-.68-6.08-.03-.45-.17-1.86.85-2.22,5.19-1.87,10.5-1.58,15.93-2.44,3.35-.53,6.51-1.44,9.42-3.1,3.42-1.95,6.93-5,5.6-9.25-.85-2.73-3.42-4.83-3.74-7.69-.1-.87.22-2.19.99-2.94,3.61-3.51,8.17-4.82,12.44-7.72,5.18-3.53,10.4-6.71,12.1-12.9.27-.96.26-2.03,0-3-.93-3.5-4.43-3.8-7.5-4.3-1.45-.24-2.07-1.6-1.13-2.92,4.83-6.75,10.83-12.56,11.37-20.93-14.32,1.32-24.7,12.24-32.96,24.03-9.03,12.89-15.01,25.69-25.76,36.61-9.88,10.04-22.09,17.46-36.31,18.83-1.53.15-3.04.18-4.58.15-7.11-.17-10.06-.85-14.8-1.69,8.85,5.55,18.8,8.37,28.93,11.25,5.51,1.57,11.05,2.39,16.68,2.28,1.03-.02,2.06-.1,3.09-.23,0,0,9.1-1.15,9.91-5.04Z"/>
      <g>
        <g>
          <path class="cls-1" d="m184.09,33.67c-.95-5.44-4.13-8.21-9.95-8.21s-10.71,4.01-11.6,8.59c-2.75,14.13,26.95,10.59,22.74,32.26-2.49,12.79-14.31,21.57-29.49,21.57-6.87,0-12.21-2-14.57-4.1,2.1-4.39,3.62-7.83,5.13-12.12h1.81c-.03,5.54,3.43,10.31,11.16,10.31s12.02-4.39,13.06-9.73c2.8-14.41-26.38-10.59-22.16-32.26,2.56-13.17,14.09-20.42,25.45-20.42,6.87,0,11.67,1.81,14.74,4.68-1.72,2.96-2.84,5.25-4.89,9.45h-1.43Z"/>
          <path class="cls-1" d="m205.9,63.54c-2.01,10.31.48,18.13,9.26,18.13,4.39,0,8.58-1.43,12.57-4.3l.98.86-3.14,5.34c-3.61,2.39-8.18,4.3-15.34,4.3-12.41,0-21.74-7.44-18.49-24.15,3.21-16.51,14.13-24.53,26.92-24.53s17.93,7.92,15.35,21.19c-.32,1.62-.48,2.48-.71,3.15h-27.39Zm15.53-4.3c1.67-9.54.96-15.75-4-15.75-5.63,0-9.06,8.3-10.7,15.75h14.7Zm-9.27-26.44c17.68-17.27,18.76-17.94,21.63-17.94,3.05,0,4.06,2.2,3.65,4.3-.5,2.58-1.58,3.72-20.03,13.65h-5.25Z"/>
          <path class="cls-1" d="m277,53.61c.12-5.54-1.96-9.54-7.78-9.54-7.44,0-12.88,7.35-15.28,19.66-2.25,11.55,1.47,17.94,10.73,17.94,3.91,0,8.54-2.2,10.7-4.49l.96.96c-1.21,1.81-2.25,3.72-3.2,5.63-3.18,2.1-7.86,4.1-13.68,4.1-18.61,0-22.36-12.6-20.1-24.24,2.73-14.03,14.68-24.43,29.95-24.43,7.06,0,11.48,1.81,15.54,4.49-2.01,2.48-4.24,6.59-5.56,9.93h-2.29Z"/>
          <path class="cls-1" d="m289,47.41c2.43-12.5,4.04-22.24,5.66-33.02,1.57.29,4.3.48,7.06.48s5.57-.19,7.25-.48c-2.58,10.79-4.76,20.52-7.19,33.02l.15.19c4.34-5.16,9.84-8.4,15.85-8.4,9.54,0,13.85,5.34,11.47,17.56-1.26,6.49-2.54,11.07-3.5,16.04-.78,4.01-1.46,8.97-2.22,13.84-1.57-.29-4.3-.48-7.06-.48s-5.57.19-7.25.48c2.2-6.87,4.17-16.03,6.38-27.39,1.54-7.92-.6-11.64-5.56-11.64-5.73,0-9.32,5.25-11.03,14.03l-.74,3.82c-.69,3.53-2.63,14.51-3.36,21.19-1.57-.29-4.3-.48-7.06-.48s-5.57.19-7.25.48c2.58-10.79,4.76-20.52,7.19-33.02l1.21-6.2Z"/>
          <path class="cls-1" d="m348.21,63.54c-2.01,10.31.48,18.13,9.26,18.13,4.39,0,8.58-1.43,12.57-4.3l.98.86-3.14,5.34c-3.61,2.39-8.18,4.3-15.34,4.3-12.41,0-21.74-7.44-18.49-24.15,3.21-16.51,14.13-24.53,26.92-24.53s17.93,7.92,15.35,21.19c-.31,1.62-.48,2.48-.71,3.15h-27.39Zm15.53-4.3c1.67-9.54.96-15.75-4-15.75-5.63,0-9.06,8.3-10.7,15.75h14.7Zm-9.27-26.44c17.68-17.27,18.76-17.94,21.63-17.94,3.05,0,4.06,2.2,3.65,4.3-.5,2.58-1.58,3.72-20.03,13.65h-5.25Z"/>
        </g>
        <g>
          <path class="cls-1" d="m184.09,33.67c-.95-5.44-4.13-8.21-9.95-8.21s-10.71,4.01-11.6,8.59c-2.75,14.13,26.95,10.59,22.74,32.26-2.49,12.79-14.31,21.57-29.49,21.57-6.87,0-12.21-2-14.57-4.1,2.1-4.39,3.62-7.83,5.13-12.12h1.81c-.03,5.54,3.43,10.31,11.16,10.31s12.02-4.39,13.06-9.73c2.8-14.41-26.38-10.59-22.16-32.26,2.56-13.17,14.09-20.42,25.45-20.42,6.87,0,11.67,1.81,14.74,4.68-1.72,2.96-2.84,5.25-4.89,9.45h-1.43Z"/>
          <path class="cls-1" d="m205.9,63.54c-2.01,10.31.48,18.13,9.26,18.13,4.39,0,8.58-1.43,12.57-4.3l.98.86-3.14,5.34c-3.61,2.39-8.18,4.3-15.34,4.3-12.41,0-21.74-7.44-18.49-24.15,3.21-16.51,14.13-24.53,26.92-24.53s17.93,7.92,15.35,21.19c-.32,1.62-.48,2.48-.71,3.15h-27.39Zm15.53-4.3c1.67-9.54.96-15.75-4-15.75-5.63,0-9.06,8.3-10.7,15.75h14.7Zm-9.27-26.44c17.68-17.27,18.76-17.94,21.63-17.94,3.05,0,4.06,2.2,3.65,4.3-.5,2.58-1.58,3.72-20.03,13.65h-5.25Z"/>
          <path class="cls-1" d="m277,53.61c.12-5.54-1.96-9.54-7.78-9.54-7.44,0-12.88,7.35-15.28,19.66-2.25,11.55,1.47,17.94,10.73,17.94,3.91,0,8.54-2.2,10.7-4.49l.96.96c-1.21,1.81-2.25,3.72-3.2,5.63-3.18,2.1-7.86,4.1-13.68,4.1-18.61,0-22.36-12.6-20.1-24.24,2.73-14.03,14.68-24.43,29.95-24.43,7.06,0,11.48,1.81,15.54,4.49-2.01,2.48-4.24,6.59-5.56,9.93h-2.29Z"/>
          <path class="cls-1" d="m289,47.41c2.43-12.5,4.04-22.24,5.66-33.02,1.57.29,4.3.48,7.06.48s5.57-.19,7.25-.48c-2.58,10.79-4.76,20.52-7.19,33.02l.15.19c4.34-5.16,9.84-8.4,15.85-8.4,9.54,0,13.85,5.34,11.47,17.56-1.26,6.49-2.54,11.07-3.5,16.04-.78,4.01-1.46,8.97-2.22,13.84-1.57-.29-4.3-.48-7.06-.48s-5.57.19-7.25.48c2.2-6.87,4.17-16.03,6.38-27.39,1.54-7.92-.6-11.64-5.56-11.64-5.73,0-9.32,5.25-11.03,14.03l-.74,3.82c-.69,3.53-2.63,14.51-3.36,21.19-1.57-.29-4.3-.48-7.06-.48s-5.57.19-7.25.48c2.58-10.79,4.76-20.52,7.19-33.02l1.21-6.2Z"/>
          <path class="cls-1" d="m348.21,63.54c-2.01,10.31.48,18.13,9.26,18.13,4.39,0,8.58-1.43,12.57-4.3l.98.86-3.14,5.34c-3.61,2.39-8.18,4.3-15.34,4.3-12.41,0-21.74-7.44-18.49-24.15,3.21-16.51,14.13-24.53,26.92-24.53s17.93,7.92,15.35,21.19c-.31,1.62-.48,2.48-.71,3.15h-27.39Zm15.53-4.3c1.67-9.54.96-15.75-4-15.75-5.63,0-9.06,8.3-10.7,15.75h14.7Zm-9.27-26.44c17.68-17.27,18.76-17.94,21.63-17.94,3.05,0,4.06,2.2,3.65,4.3-.5,2.58-1.58,3.72-20.03,13.65h-5.25Z"/>
        </g>
      </g>
    </g>
  </g>
</svg>